<?xml version="1.0" encoding="UTF-8" standalone="no"?>
<!DOCTYPE svg PUBLIC "-//W3C//DTD SVG 1.1//EN"
 "http://www.w3.org/Graphics/SVG/1.1/DTD/svg11.dtd">
<!-- Generated by graphviz version 2.36.0 (20140111.2315)
 -->
<!-- Title: G Pages: 1 -->
<svg width="880pt" height="296pt"
 viewBox="0.00 0.00 880.00 296.00" xmlns="http://www.w3.org/2000/svg" xmlns:xlink="http://www.w3.org/1999/xlink">
<g id="graph0" class="graph" transform="scale(1 1) rotate(0) translate(4 292)">
<title>G</title>
<polygon fill="white" stroke="none" points="-4,4 -4,-292 876,-292 876,4 -4,4"/>
<!-- switch -->
<g id="node1" class="node"><title>switch</title>
<polygon fill="none" stroke="black" points="0,-44 0,-188 94,-188 94,-44 0,-44"/>
<text text-anchor="middle" x="47" y="-112.3" font-family="Times,serif" font-size="14.00">Audio Switch</text>
</g>
<!-- nano -->
<g id="node2" class="node"><title>nano</title>
<polygon fill="none" stroke="black" points="200.5,-44 200.5,-188 391.5,-188 391.5,-44 200.5,-44"/>
<text text-anchor="middle" x="224" y="-160.3" font-family="Times,serif" font-size="14.00">5V</text>
<polyline fill="none" stroke="black" points="200.5,-140 247.5,-140 "/>
<text text-anchor="middle" x="224" y="-112.3" font-family="Times,serif" font-size="14.00">GND</text>
<polyline fill="none" stroke="black" points="200.5,-92 247.5,-92 "/>
<text text-anchor="middle" x="224" y="-64.3" font-family="Times,serif" font-size="14.00">D11</text>
<polyline fill="none" stroke="black" points="247.5,-44 247.5,-188 "/>
<text text-anchor="middle" x="296" y="-112.3" font-family="Times,serif" font-size="14.00">Arduino Nano</text>
<polyline fill="none" stroke="black" points="344.5,-44 344.5,-188 "/>
<text text-anchor="middle" x="368" y="-148.3" font-family="Times,serif" font-size="14.00">GND</text>
<polyline fill="none" stroke="black" points="344.5,-116 391.5,-116 "/>
<text text-anchor="middle" x="368" y="-76.3" font-family="Times,serif" font-size="14.00">D3</text>
</g>
<!-- switch&#45;&gt;nano -->
<g id="edge1" class="edge"><title>switch&#45;&gt;nano:V5</title>
<path fill="none" stroke="black" d="M94.0594,-138.594C120.835,-149.877 155.86,-161.575 189.586,-163.669"/>
<polygon fill="black" stroke="black" points="189.894,-167.181 200,-164 190.116,-160.184 189.894,-167.181"/>
<text text-anchor="middle" x="147" y="-165.8" font-family="Times,serif" font-size="14.00">5V</text>
</g>
<!-- switch&#45;&gt;nano -->
<g id="edge2" class="edge"><title>switch&#45;&gt;nano:GND1</title>
<path fill="none" stroke="black" d="M94.231,-116C121.528,-116 157.066,-116 189.907,-116"/>
<polygon fill="black" stroke="black" points="190,-119.5 200,-116 190,-112.5 190,-119.5"/>
<text text-anchor="middle" x="147" y="-120.8" font-family="Times,serif" font-size="14.00">Ground</text>
</g>
<!-- switch&#45;&gt;nano -->
<g id="edge3" class="edge"><title>switch&#45;&gt;nano:D11</title>
<path fill="none" stroke="black" d="M94.0594,-93.4055C120.835,-82.123 155.86,-70.4248 189.586,-68.3305"/>
<polygon fill="black" stroke="black" points="190.116,-71.8155 200,-68 189.894,-64.8191 190.116,-71.8155"/>
<text text-anchor="middle" x="147" y="-90.8" font-family="Times,serif" font-size="14.00">Mute Signal</text>
</g>
<!-- ohm -->
<g id="node3" class="node"><title>ohm</title>
<polygon fill="none" stroke="black" points="430,-74 430,-110 484,-110 484,-74 430,-74"/>
<text text-anchor="middle" x="457" y="-88.3" font-family="Times,serif" font-size="14.00">220R</text>
</g>
<!-- nano&#45;&gt;ohm -->
<g id="edge5" class="edge"><title>nano:D3&#45;&gt;ohm</title>
<path fill="none" stroke="black" d="M392,-80C401.117,-80 410.842,-81.1909 419.886,-82.8225"/>
<polygon fill="black" stroke="black" points="419.245,-86.2636 429.74,-84.8117 420.63,-79.402 419.245,-86.2636"/>
</g>
<!-- jack -->
<g id="node4" class="node"><title>jack</title>
<polygon fill="none" stroke="black" points="540,-86.5 540,-201.5 648,-201.5 648,-86.5 540,-86.5"/>
<text text-anchor="middle" x="552" y="-186.3" font-family="Times,serif" font-size="14.00">2</text>
<polyline fill="none" stroke="black" points="540,-178.5 564,-178.5 "/>
<text text-anchor="middle" x="552" y="-163.3" font-family="Times,serif" font-size="14.00">3</text>
<polyline fill="none" stroke="black" points="540,-155.5 564,-155.5 "/>
<text text-anchor="middle" x="552" y="-140.3" font-family="Times,serif" font-size="14.00">1</text>
<polyline fill="none" stroke="black" points="540,-132.5 564,-132.5 "/>
<text text-anchor="middle" x="552" y="-117.3" font-family="Times,serif" font-size="14.00">4</text>
<polyline fill="none" stroke="black" points="540,-109.5 564,-109.5 "/>
<text text-anchor="middle" x="552" y="-94.3" font-family="Times,serif" font-size="14.00">5</text>
<polyline fill="none" stroke="black" points="564,-86.5 564,-201.5 "/>
<text text-anchor="middle" x="606" y="-147.8" font-family="Times,serif" font-size="14.00">3.5mm </text>
<text text-anchor="middle" x="606" y="-132.8" font-family="Times,serif" font-size="14.00"> Phono Jack</text>
</g>
<!-- nano&#45;&gt;jack -->
<g id="edge4" class="edge"><title>nano:GND2&#45;&gt;jack:P1</title>
<path fill="none" stroke="black" d="M392,-152C454.4,-152 472.274,-144.822 529.978,-144.064"/>
<polygon fill="black" stroke="black" points="530.023,-147.564 540,-144 529.978,-140.564 530.023,-147.564"/>
<text text-anchor="middle" x="457" y="-153.8" font-family="Times,serif" font-size="14.00">Sleeve</text>
</g>
<!-- ohm&#45;&gt;jack -->
<g id="edge6" class="edge"><title>ohm&#45;&gt;jack:P5</title>
<path fill="none" stroke="black" d="M484.184,-94.8946C497.377,-96.1532 513.902,-97.4366 529.736,-97.8571"/>
<polygon fill="black" stroke="black" points="529.952,-101.36 540,-98 530.05,-94.3611 529.952,-101.36"/>
<text text-anchor="middle" x="512" y="-101.8" font-family="Times,serif" font-size="14.00">Tip</text>
</g>
<!-- avr -->
<g id="node5" class="node"><title>avr</title>
<polygon fill="none" stroke="black" points="780.5,-0 780.5,-288 871.5,-288 871.5,-0 780.5,-0"/>
<text text-anchor="middle" x="826" y="-140.3" font-family="Times,serif" font-size="14.00">HK AVR320</text>
</g>
<!-- jack&#45;&gt;avr -->
<g id="edge7" class="edge"><title>jack&#45;&gt;avr</title>
<path fill="none" stroke="black" d="M648.055,-144C684.677,-144 733.245,-144 770.232,-144"/>
<polygon fill="black" stroke="black" points="770.337,-147.5 780.337,-144 770.337,-140.5 770.337,-147.5"/>
<text text-anchor="middle" x="714" y="-147.8" font-family="Times,serif" font-size="14.00">Remote IR Input</text>
</g>
</g>
</svg>
