<?xml version="1.0" encoding="UTF-8" standalone="no"?>
<!DOCTYPE svg PUBLIC "-//W3C//DTD SVG 1.1//EN"
 "http://www.w3.org/Graphics/SVG/1.1/DTD/svg11.dtd">
<!-- Generated by graphviz version 2.36.0 (20140111.2315)
 -->
<!-- Title: G Pages: 1 -->
<svg width="806pt" height="296pt"
 viewBox="0.00 0.00 806.00 296.00" xmlns="http://www.w3.org/2000/svg" xmlns:xlink="http://www.w3.org/1999/xlink">
<g id="graph0" class="graph" transform="scale(1 1) rotate(0) translate(4 292)">
<title>G</title>
<polygon fill="white" stroke="none" points="-4,4 -4,-292 802,-292 802,4 -4,4"/>
<!-- switch -->
<g id="node1" class="node"><title>switch</title>
<polygon fill="none" stroke="black" points="0,-55 0,-199 94,-199 94,-55 0,-55"/>
<text text-anchor="middle" x="47" y="-123.3" font-family="Times,serif" font-size="14.00">Audio Switch</text>
</g>
<!-- nano -->
<g id="node2" class="node"><title>nano</title>
<polygon fill="none" stroke="black" points="200.5,-55 200.5,-199 391.5,-199 391.5,-55 200.5,-55"/>
<text text-anchor="middle" x="224" y="-171.3" font-family="Times,serif" font-size="14.00">5V</text>
<polyline fill="none" stroke="black" points="200.5,-151 247.5,-151 "/>
<text text-anchor="middle" x="224" y="-123.3" font-family="Times,serif" font-size="14.00">GND</text>
<polyline fill="none" stroke="black" points="200.5,-103 247.5,-103 "/>
<text text-anchor="middle" x="224" y="-75.3" font-family="Times,serif" font-size="14.00">D11</text>
<polyline fill="none" stroke="black" points="247.5,-55 247.5,-199 "/>
<text text-anchor="middle" x="296" y="-123.3" font-family="Times,serif" font-size="14.00">Arduino Nano</text>
<polyline fill="none" stroke="black" points="344.5,-55 344.5,-199 "/>
<text text-anchor="middle" x="368" y="-159.3" font-family="Times,serif" font-size="14.00">GND</text>
<polyline fill="none" stroke="black" points="344.5,-127 391.5,-127 "/>
<text text-anchor="middle" x="368" y="-87.3" font-family="Times,serif" font-size="14.00">D3</text>
</g>
<!-- switch&#45;&gt;nano -->
<g id="edge1" class="edge"><title>switch&#45;&gt;nano:V5</title>
<path fill="none" stroke="black" d="M94.0594,-149.594C120.835,-160.877 155.86,-172.575 189.586,-174.669"/>
<polygon fill="black" stroke="black" points="189.894,-178.181 200,-175 190.116,-171.184 189.894,-178.181"/>
<text text-anchor="middle" x="147" y="-176.8" font-family="Times,serif" font-size="14.00">5V</text>
</g>
<!-- switch&#45;&gt;nano -->
<g id="edge2" class="edge"><title>switch&#45;&gt;nano:GND1</title>
<path fill="none" stroke="black" d="M94.231,-127C121.528,-127 157.066,-127 189.907,-127"/>
<polygon fill="black" stroke="black" points="190,-130.5 200,-127 190,-123.5 190,-130.5"/>
<text text-anchor="middle" x="147" y="-130.8" font-family="Times,serif" font-size="14.00">Ground</text>
</g>
<!-- switch&#45;&gt;nano -->
<g id="edge3" class="edge"><title>switch&#45;&gt;nano:D11</title>
<path fill="none" stroke="black" d="M94.0594,-104.406C120.835,-93.123 155.86,-81.4248 189.586,-79.3305"/>
<polygon fill="black" stroke="black" points="190.116,-82.8155 200,-79 189.894,-75.8191 190.116,-82.8155"/>
<text text-anchor="middle" x="147" y="-101.8" font-family="Times,serif" font-size="14.00">Mute Signal</text>
</g>
<!-- jack -->
<g id="node3" class="node"><title>jack</title>
<polygon fill="none" stroke="black" points="466,-86.5 466,-201.5 574,-201.5 574,-86.5 466,-86.5"/>
<text text-anchor="middle" x="478" y="-186.3" font-family="Times,serif" font-size="14.00">2</text>
<polyline fill="none" stroke="black" points="466,-178.5 490,-178.5 "/>
<text text-anchor="middle" x="478" y="-163.3" font-family="Times,serif" font-size="14.00">3</text>
<polyline fill="none" stroke="black" points="466,-155.5 490,-155.5 "/>
<text text-anchor="middle" x="478" y="-140.3" font-family="Times,serif" font-size="14.00">1</text>
<polyline fill="none" stroke="black" points="466,-132.5 490,-132.5 "/>
<text text-anchor="middle" x="478" y="-117.3" font-family="Times,serif" font-size="14.00">4</text>
<polyline fill="none" stroke="black" points="466,-109.5 490,-109.5 "/>
<text text-anchor="middle" x="478" y="-94.3" font-family="Times,serif" font-size="14.00">5</text>
<polyline fill="none" stroke="black" points="490,-86.5 490,-201.5 "/>
<text text-anchor="middle" x="532" y="-147.8" font-family="Times,serif" font-size="14.00">3.5mm </text>
<text text-anchor="middle" x="532" y="-132.8" font-family="Times,serif" font-size="14.00"> Phono Jack</text>
</g>
<!-- nano&#45;&gt;jack -->
<g id="edge4" class="edge"><title>nano:GND2&#45;&gt;jack:P1</title>
<path fill="none" stroke="black" d="M392,-163C422.242,-163 430.379,-147.929 455.785,-144.632"/>
<polygon fill="black" stroke="black" points="456.235,-148.111 466,-144 455.803,-141.124 456.235,-148.111"/>
<text text-anchor="middle" x="429" y="-164.8" font-family="Times,serif" font-size="14.00">Sleeve</text>
</g>
<!-- nano&#45;&gt;jack -->
<g id="edge5" class="edge"><title>nano:D3&#45;&gt;jack:P5</title>
<path fill="none" stroke="black" d="M392,-91C421.422,-91 430.93,-96.5525 455.996,-97.7671"/>
<polygon fill="black" stroke="black" points="455.921,-101.266 466,-98 456.084,-94.2681 455.921,-101.266"/>
<text text-anchor="middle" x="429" y="-101.8" font-family="Times,serif" font-size="14.00">Tip</text>
</g>
<!-- avr -->
<g id="node4" class="node"><title>avr</title>
<polygon fill="none" stroke="black" points="706.5,-0 706.5,-288 797.5,-288 797.5,-0 706.5,-0"/>
<text text-anchor="middle" x="752" y="-140.3" font-family="Times,serif" font-size="14.00">HK AVR320</text>
</g>
<!-- jack&#45;&gt;avr -->
<g id="edge6" class="edge"><title>jack&#45;&gt;avr</title>
<path fill="none" stroke="black" d="M574.055,-144C610.677,-144 659.245,-144 696.232,-144"/>
<polygon fill="black" stroke="black" points="696.337,-147.5 706.337,-144 696.337,-140.5 696.337,-147.5"/>
<text text-anchor="middle" x="640" y="-147.8" font-family="Times,serif" font-size="14.00">Remote IR Input</text>
</g>
</g>
</svg>
